<svg xmlns="http://www.w3.org/2000/svg" xmlns:xlink="http://www.w3.org/1999/xlink" version="1.1" x="0px" y="0px" viewBox="0 0 29 30" xml:space="preserve">
  <path d="M28.669,18.417l-1.289-5.32c-0.177-0.719-0.924-1.179-1.652-1.006l-3.778,0.915c-0.333-0.738-0.768-1.42-1.288-2.028 l3.114-1.118c0.612-0.221,0.987-0.844,0.89-1.487l-0.676-4.486c-0.111-0.731-0.808-1.275-1.558-1.157   c-0.746,0.112-1.261,0.81-1.148,1.555l0.509,3.373l-3.648,1.314c-0.034-0.019-0.071-0.033-0.105-0.051   c-0.159-0.328-0.001-0.684,0.209-0.974c0,0,1.129-1.563,1.129-3.068c0-2.234-1.421-4.14-3.382-4.878v1.372   c0,0.896-0.733,1.628-1.63,1.628h-0.021c-0.896,0-1.638-0.731-1.638-1.628V0c-1.961,0.738-3.378,2.644-3.378,4.878   c0,1.506,1.131,3.068,1.131,3.068c0.174,0.239,0.319,0.524,0.275,0.801c-0.114,0.052-0.227,0.107-0.338,0.163L6.914,7.656   l0.51-3.373c0.111-0.745-0.402-1.442-1.148-1.555C5.525,2.61,4.828,3.154,4.718,3.886L4.042,8.372   c-0.098,0.644,0.277,1.267,0.89,1.487l2.894,1.039c-0.536,0.61-0.985,1.297-1.33,2.044l-3.516-0.852   c-0.729-0.173-1.476,0.287-1.651,1.006l-1.29,5.32c-0.177,0.732,0.274,1.474,1.007,1.651c0.107,0.026,0.217,0.039,0.324,0.039   c0.633,0,1.179-0.432,1.328-1.047l0.968-3.99l2.094,0.509c-0.032,0.303-0.052,0.609-0.052,0.921c0,1.126,0.224,2.197,0.621,3.181   l-1.819,1.167c-0.606,0.391-0.807,1.19-0.454,1.821l2.623,4.675c0.241,0.43,0.699,0.697,1.193,0.697   c0.234,0,0.467-0.06,0.669-0.175c0.318-0.18,0.548-0.472,0.647-0.822c0.1-0.352,0.055-0.722-0.124-1.041l-1.992-3.55l0.679-0.435   C9.309,23.841,11.621,25,14.207,25c2.644,0,5.004-1.207,6.563-3.1l0.865,0.553l-1.992,3.55c-0.179,0.319-0.224,0.689-0.124,1.041   c0.1,0.351,0.329,0.643,0.647,0.822c0.202,0.115,0.435,0.175,0.669,0.175c0.494,0,0.952-0.268,1.193-0.697l2.623-4.675   c0.353-0.631,0.152-1.431-0.454-1.821l-2.057-1.319c0.359-0.941,0.565-1.96,0.565-3.028c0-0.288-0.016-0.572-0.043-0.853   l2.378-0.577l0.967,3.99c0.149,0.615,0.696,1.047,1.329,1.047c0.107,0,0.217-0.013,0.324-0.039   C28.395,19.891,28.846,19.149,28.669,18.417z"/>
</svg>
