<svg viewBox="0 0 64 64" xmlns="http://www.w3.org/2000/svg" aria-labelledby="title"
aria-describedby="desc" role="img" xmlns:xlink="http://www.w3.org/1999/xlink">
  <title>Code Bug</title>
  <desc>A solid styled icon from Orion Icon Library.</desc>
  <path
  d="M14.01 38H2a2 2 0 0 0 0 4h12.263a28.729 28.729 0 0 0 2.875 9.563c-6.078 1.841-8.9 9.429-9.019 9.762a2 2 0 0 0 1.2 2.56A2.026 2.026 0 0 0 10 64a2 2 0 0 0 1.881-1.32c.6-1.646 3.107-6.539 6.723-7.395a2.006 2.006 0 0 0 .66-.3 16.686 16.686 0 0 0 10.758 6.938V32a26.454 26.454 0 0 1-13.934-5.128A30.432 30.432 0 0 0 14.01 38zm25.658-21.636L46.75 4.038a2 2 0 1 0-3.42-2.074l-7.078 12.322a1.98 1.98 0 0 0-.186.407 13.656 13.656 0 0 0-8.1-.007 1.932 1.932 0 0 0-.182-.4L20.711 1.963a2 2 0 1 0-3.42 2.074l7.074 12.316a20.08 20.08 0 0 0-6.48 6.854 22.532 22.532 0 0 0 14.137 4.868 22.464 22.464 0 0 0 14.094-4.9 20.087 20.087 0 0 0-6.448-6.811zM62 38H50.006a30.47 30.47 0 0 0-2.09-11.157A26.41 26.41 0 0 1 34.021 32v29.922a16.693 16.693 0 0 0 10.727-6.928 1.994 1.994 0 0 0 .652.291c3.619.856 6.125 5.746 6.719 7.393A2 2 0 0 0 54 64a1.975 1.975 0 0 0 .678-.119 2 2 0 0 0 1.205-2.559c-.121-.332-2.932-7.911-9.008-9.76A28.738 28.738 0 0 0 49.754 42H62a2 2 0 0 0 0-4zM14.455 25.5a27.84 27.84 0 0 1 1.9-3.693 20.063 20.063 0 0 1-4.512-6.584 2 2 0 1 0-3.686 1.554 24.151 24.151 0 0 0 6.298 8.723zm35.045-.033a24.7 24.7 0 0 0 6.33-8.67 2 2 0 1 0-3.664-1.597 20.656 20.656 0 0 1-4.566 6.581 27.819 27.819 0 0 1 1.9 3.686z"
  data-name="layer1"></path>
</svg>